<svg xmlns="http://www.w3.org/2000/svg" viewBox="0 0 477.00009 481.31833" height="513.406" width="508.8"><path d="M54.128 480.292C53.304 479.41 53 448.78 53 366.786V254.488l18.25-18.135 18.25-18.136 28-.642c15.4-.354 31.825-1.072 36.5-1.596 19.825-2.223 20-2.23 19.992-.822 0 .739-.826 4.718-1.826 8.843-1.467 6.048-3.616 10.394-11.104 22.45l-9.286 14.95.862 6.036c.83 5.818 1.025 6.126 5.362 8.514 3.619 1.993 6.283 2.556 13.605 2.877 15.627.685 23.273-2.665 37.395-16.384 4.125-4.008 9.3-8.191 11.5-9.297 11.877-5.97 25.078-2.513 48 12.569 18.382 12.094 27.9 21.239 59.174 56.849 15.706 17.884 31.18 32.916 45.026 43.743 5.815 4.546 9.219 7.906 9.25 9.131.075 2.914-4.039 8.357-7.601 10.057-4.38 2.092-8.025 1.87-13.849-.845-7.317-3.41-32.297-19.14-42.29-26.63-9.737-7.298-24.43-21.765-33.287-32.776-3.258-4.05-5.923-6.84-5.923-6.2 0 2.143 7.715 17.405 11.287 22.328 9.537 13.142 32.392 32.603 49.791 42.395 12.848 7.23 14.922 8.499 14.922 9.123 0 .384-1.462 3.154-3.25 6.154-7.661 12.86-21.096 12.966-40.493.318-9.786-6.38-23.812-18.159-25.972-21.809-.668-1.13-1.23-1.66-1.25-1.18-.02.48-.71.312-1.535-.373-2.47-2.05-1.857.544 1.74 7.36 4.875 9.239 16.705 20.647 25.869 24.948 4.065 1.907 8.488 3.8 9.828 4.207 2.373.719 2.386.778.5 2.221-11.039 8.45-26.479 8.331-42.1-.322-7.195-3.986-7.337-4.015-7.337-1.481 0 2.083 5.577 7.02 13.304 11.775 4.207 2.59 4.609 3.12 3.232 4.262-4.436 3.682-17.805 2.564-27.316-2.284-2.596-1.322-5.95-2.99-7.453-3.706-3.226-1.535-4.29-4.133-2.82-6.882.583-1.088 3.758-5.717 7.058-10.288 9.753-13.51 13.515-29.472 9.381-39.803-1.872-4.68-5.185-7.337-11.145-8.942L251 355.923l-.01-5.212c-.01-7.25-1.578-12.167-5.204-16.297-4.853-5.527-10.175-7.859-17.79-7.795-7.914.066-13.866 2.652-20.652 8.972-2.605 2.425-4.993 4.409-5.307 4.409-.315 0-1.363-2.228-2.33-4.952-2.398-6.75-5.7-10.366-11.899-13.033-4.05-1.742-6.403-2.13-10.41-1.717-6.292.65-9.018 1.985-22.079 10.819-5.596 3.786-10.927 6.883-11.846 6.883-.919 0-4.537-2.627-8.041-5.838-7.265-6.657-13.386-9.162-22.386-9.162-5.498 0-15.54 2.654-21.3 5.63l-2.75 1.421V446h299v-78.625l-6.99-5.523c-19.172-15.147-45.566-41.238-67.852-67.073-9.815-11.378-21.615-21.794-37.857-33.416-22.137-15.841-37.956-21.98-49.899-19.367-9.382 2.054-12.78 4.528-20.607 15.004-4.232 5.665-11.422 10.545-18.62 12.637-10.305 2.996-27.175.515-27.175-3.996 0-.723 2.973-6 6.606-11.727 8.05-12.688 10.458-17.415 13.343-26.182 2.99-9.092 7.512-15.534 13.475-19.203l4.924-3.029h34.777c26.488 0 35.074.298 36.026 1.25.687.687 2.257 1.25 3.49 1.25 1.232 0 2.495.41 2.805.912.31.502 4.049 2.817 8.309 5.145 4.26 2.329 7.97 4.506 8.245 4.838.275.333 1.85 1.126 3.5 1.762 1.65.637 8.12 3.484 14.379 6.328 20.39 9.264 46.053 16.875 67.327 19.966l11.794 1.714v-14.333c0-7.882.314-14.332.697-14.332.384 0 8.484 7.751 18 17.225l17.303 17.225v112.806c0 89.326-.26 112.905-1.25 113.28-.687.261-83.655.585-184.372.72-142.057.19-183.375-.027-184.25-.964zM216 433.394c-8.444-3.054-11.928-6.763-13.345-14.206-1.184-6.222 0-7.737 37.424-47.938 5.426-5.828 6.114-6.25 10.196-6.25 6.304 0 9.249 3.322 9.159 10.333-.091 7.076-2.482 13.622-8.964 24.538-7.045 11.866-8.47 15.365-8.47 20.797 0 3.363.588 5.011 2.455 6.877 1.35 1.35 3.15 2.455 4 2.455 2.213 0 1.906 1.288-.705 2.957-3.504 2.239-25.914 2.547-31.75.437zm-36.794-24.521c-5.56-2.752-8.206-7.737-8.206-15.462 0-5.578.099-5.773 6.25-12.304 3.437-3.65 14.062-15.048 23.61-25.33 13.926-14.998 18.226-19.026 21.74-20.369 11.211-4.281 21.151 3.353 20.03 15.382-.527 5.644-.15 5.08-13.148 19.71a15868.81 15868.81 0 0 0-21.01 23.75L193.681 411h-5.09c-3.176-.001-6.706-.801-9.385-2.127zm-35.5-22.317c-10.272-2.938-14.965-12.884-11.672-24.739 1.339-4.82 7.317-10.13 23.575-20.94C172.078 329.925 173.94 329 179.5 329c9.337 0 13.968 5.122 13.792 15.254-.06 3.503-.822 7.11-1.946 9.22-2.084 3.915-16.534 19.041-26.675 27.926-5.896 5.166-7.321 5.939-11.453 6.213-2.595.172-6.875-.304-9.512-1.057zm-25.476-32.671c-6.29-3.114-15.23-14.411-15.23-19.247 0-3.656 13.753-4.845 20.5-1.772 4.156 1.892 11.5 9.186 11.5 11.421 0 1.477-10.078 11.713-11.531 11.712-.533 0-2.89-.952-5.239-2.114zM0 249.99v-36.01l2.75-2.775c1.513-1.527 9.724-9.06 18.248-16.741C43.025 174.618 58.86 160.302 63.5 156.04c2.2-2.02 18.625-16.875 36.5-33.01 17.875-16.135 36.55-33.015 41.5-37.513 4.95-4.497 11.022-9.94 13.494-12.097 5.626-4.906 11.646-10.378 20.053-18.223 3.6-3.36 7.65-7.058 9-8.216 1.349-1.159 4.253-3.775 6.453-5.814 10.588-9.815 31.763-28.7 32.472-28.962.439-.162 3.478-2.975 6.753-6.25C234.04 1.64 236.419 0 238.364 0c2.085 0 7.532 4.392 24.41 19.68a59318.65 59318.65 0 0 0 41.72 37.75c10.995 9.939 22.695 20.562 26 23.608C333.796 84.084 340.774 90.367 346 95c5.225 4.633 12.206 10.916 15.514 13.962 5.107 4.702 18.052 16.522 27.579 25.182 3.673 3.338 7.287 6.583 35.407 31.787 13.75 12.324 29.275 26.327 34.5 31.118 5.225 4.791 11.413 10.392 13.75 12.447l4.25 3.737v36.383c0 28.443-.273 36.383-1.25 36.38-.687-.004-2.6-1.26-4.25-2.793-1.65-1.533-16.95-15.335-34-30.671-17.05-15.336-33.025-29.774-35.5-32.085-2.475-2.311-9.675-8.843-16-14.517-6.325-5.673-11.725-10.572-12-10.888-.275-.315-5-4.594-10.5-9.51-5.5-4.915-10.145-9.52-10.323-10.235-.178-.713-.853-1.299-1.5-1.3-.647-.003-7.702-5.92-15.677-13.151a25215.85 25215.85 0 0 0-23.462-21.246c-4.93-4.455-10.388-9.45-12.13-11.1-1.742-1.65-6.687-6.15-10.99-10a2562.78 2562.78 0 0 1-12.37-11.14c-34.984-31.836-38.109-34.431-39.9-33.139-.975.704-10.227 8.929-20.561 18.279s-19.418 17.145-20.188 17.323c-.77.178-1.399.697-1.399 1.152 0 .726-10.598 10.508-51.5 47.535-11.772 10.657-41.056 36.984-47.5 42.703-2.475 2.197-7.215 6.535-10.533 9.64a1084.78 1084.78 0 0 1-12 11.032A6741.405 6741.405 0 0 0 63.5 230.9c-4.586 4.16-21.383 19.105-23.154 20.601-.651.55-3.592 3.25-6.535 6C12.379 277.524 2.65 286 1.106 286 .319 286 0 275.624 0 249.99zm381.393-134.782c-9.895-8.63-53.876-48.48-59.143-53.589L316 55.558V35h70.721l.631 5.25c.347 2.887.635 21.562.64 41.5.01 33.876-.107 36.247-1.742 36.21-.962-.023-3.148-1.26-4.857-2.75z" fill="#363636"/></svg>