<?xml version="1.0" encoding="UTF-8" standalone="no"?>
<svg
   xmlns:dc="http://purl.org/dc/elements/1.1/"
   xmlns:cc="http://creativecommons.org/ns#"
   xmlns:rdf="http://www.w3.org/1999/02/22-rdf-syntax-ns#"
   xmlns:svg="http://www.w3.org/2000/svg"
   xmlns="http://www.w3.org/2000/svg"
   version="1.1"
   id="svg3336"
   viewBox="0 0 477.00009 481.31833"
   height="135.83873mm"
   width="134.62003mm">
  <defs
     id="defs3338" />
  <metadata
     id="metadata3341">
    <rdf:RDF>
      <cc:Work
         rdf:about="">
        <dc:format>image/svg+xml</dc:format>
        <dc:type
           rdf:resource="http://purl.org/dc/dcmitype/StillImage" />
        <dc:title></dc:title>
      </cc:Work>
    </rdf:RDF>
  </metadata>
  <g
     transform="translate(-145.42858,-256.5051)"
     id="layer1">
    <path
       id="path3357"
       d="m 199.55676,736.79731 c -0.8237,-0.88186 -1.1282,-31.51313 -1.1282,-113.50614 l 0,-112.29834 18.25,-18.13515 18.25,-18.13515 28,-0.64254 c 15.4,-0.3534 31.825,-1.07154 36.5,-1.59586 19.825,-2.22345 20.0004,-2.23066 19.9922,-0.82158 0,0.7384 -0.8262,4.71755 -1.8264,8.84255 -1.4665,6.04819 -3.616,10.39398 -11.1042,22.45017 l -9.2857,14.95017 0.8621,6.03611 c 0.8307,5.81705 1.0253,6.12604 5.362,8.51373 3.6187,1.99237 6.2834,2.55577 13.6055,2.87668 15.6264,0.68484 23.2725,-2.66529 37.3945,-16.38434 4.125,-4.00729 9.3,-8.19069 11.5,-9.29643 11.877,-5.96949 25.0785,-2.51277 48,12.56843 18.3824,12.0947 27.9009,21.23916 59.1738,56.84908 15.706,17.88418 31.1793,32.91642 45.0266,43.74304 5.8149,4.54649 9.2186,7.90651 9.25,9.13148 0.075,2.91339 -4.0393,8.35648 -7.6015,10.05731 -4.3807,2.09165 -8.0244,1.86927 -13.8488,-0.84522 -7.3174,-3.41029 -32.2972,-19.14015 -42.2894,-26.62978 -9.7375,-7.29874 -24.4298,-21.76548 -33.2881,-32.77687 -3.2574,-4.04922 -5.9226,-6.83932 -5.9226,-6.20024 0,2.14415 7.7147,17.40546 11.2874,22.3289 9.5366,13.14213 32.3917,32.60233 49.7908,42.39477 12.8477,7.23083 14.9219,8.49892 14.9219,9.12271 0,0.38432 -1.4625,3.15387 -3.25,6.15454 -7.6612,12.86069 -21.0956,12.96625 -40.4929,0.31816 -9.7865,-6.38133 -23.8124,-18.15932 -25.9717,-21.80939 -0.6681,-1.12915 -1.2306,-1.66041 -1.25,-1.18057 -0.02,0.47985 -0.7105,0.31225 -1.5355,-0.37244 -2.4698,-2.04978 -1.8565,0.54445 1.7401,7.36002 4.8754,9.23902 16.7046,20.64693 25.8689,24.94768 4.0651,1.9077 8.4877,3.80091 9.828,4.20714 2.3727,0.71914 2.3859,0.77767 0.5,2.22123 -11.0387,8.4496 -26.4785,8.33143 -42.0995,-0.3222 -7.1957,-3.98624 -7.3375,-4.01486 -7.3375,-1.48082 0,2.08305 5.5769,7.01909 13.3041,11.77533 4.2073,2.58967 4.6088,3.11909 3.2317,4.26192 -4.4357,3.68127 -17.8048,2.5635 -27.3162,-2.28386 -2.5958,-1.32291 -5.9496,-2.9906 -7.453,-3.70598 -3.226,-1.53508 -4.2903,-4.13337 -2.8191,-6.88243 0.5821,-1.08763 3.7579,-5.71713 7.0572,-10.28777 9.753,-13.51093 13.5151,-29.47222 9.3816,-39.80292 -1.8725,-4.67968 -5.185,-7.33752 -11.1455,-8.94249 l -4.2408,-1.14194 -0.01,-5.21145 c -0.01,-7.25093 -1.5776,-12.16719 -5.2043,-16.29771 -4.8525,-5.52669 -10.1742,-7.85843 -17.7901,-7.79484 -7.9135,0.0661 -13.8652,2.65161 -20.6519,8.97168 -2.6042,2.42518 -4.9923,4.40941 -5.3068,4.40941 -0.3145,0 -1.3633,-2.22831 -2.3306,-4.9518 -2.3975,-6.75031 -5.6987,-10.36654 -11.8978,-13.03334 -4.05,-1.74225 -6.4039,-2.13046 -10.4106,-1.71694 -6.2923,0.64943 -9.0175,1.98487 -22.0784,10.8191 -5.5965,3.78564 -10.9275,6.88298 -11.8463,6.88298 -0.9188,0 -4.5373,-2.62689 -8.0412,-5.83754 -7.265,-6.65709 -13.3861,-9.16246 -22.3857,-9.16246 -5.4981,0 -15.5401,2.6545 -21.3003,5.63055 l -2.75,1.42081 0,57.97432 0,57.97432 149.5,0 149.5001,0 0,-39.31264 0,-39.31263 -6.9905,-5.52298 c -19.1714,-15.14671 -45.5654,-41.23775 -67.8515,-67.07271 -9.8153,-11.37838 -21.6154,-21.79436 -37.8569,-33.4165 -22.1367,-15.84062 -37.9559,-21.98028 -49.8987,-19.36633 -9.3822,2.05351 -12.7802,4.52757 -20.607,15.00379 -4.2323,5.66493 -11.4227,10.54504 -18.6198,12.6373 -10.3052,2.9958 -27.1757,0.51474 -27.1757,-3.99658 0,-0.72225 2.9729,-5.99937 6.6065,-11.72695 8.0489,-12.68751 10.458,-17.41497 13.3421,-26.18181 2.9909,-9.09168 7.512,-15.53424 13.4755,-19.20282 l 4.9242,-3.02914 34.7766,0 c 26.4885,0 35.0744,0.29791 36.0259,1.25 0.6871,0.6875 2.2577,1.25 3.4902,1.25 1.2325,0 2.4947,0.41051 2.8048,0.91223 0.3101,0.50173 4.0491,2.81707 8.309,5.14519 4.2599,2.32813 7.9703,4.50512 8.2453,4.83777 0.275,0.33264 1.85,1.12554 3.5,1.76199 1.65,0.63645 8.1204,3.48379 14.3788,6.32743 20.3895,9.26449 46.0531,16.87517 67.3275,19.96639 l 11.7937,1.71364 0,-14.33232 c 0,-7.88278 0.3137,-14.33232 0.6972,-14.33232 0.3834,0 8.4834,7.75117 18,17.22482 l 17.3028,17.22482 0,112.80656 c 0,89.32583 -0.2602,112.90522 -1.25,113.28049 -0.6875,0.26065 -83.6548,0.58403 -184.3719,0.71861 -142.0576,0.18983 -183.3748,-0.0261 -184.25,-0.96309 z m 161.8718,-46.8987 c -8.4439,-3.05357 -11.9284,-6.76286 -13.3446,-14.2057 -1.184,-6.22226 0,-7.73689 37.4241,-47.93781 5.426,-5.82837 6.1138,-6.25 10.1952,-6.25 6.3046,0 9.249,3.32169 9.1589,10.33259 -0.091,7.07624 -2.4819,13.6221 -8.9635,24.53891 -7.0446,11.86502 -8.4701,15.36485 -8.4701,20.79608 0,3.36304 0.5884,5.01169 2.4546,6.87787 1.35,1.35 3.15,2.45455 4,2.45455 2.2134,0 1.9064,1.2882 -0.7046,2.95684 -3.5035,2.23899 -25.9138,2.54721 -31.75,0.43667 z m -36.7941,-24.52063 c -5.5604,-2.75234 -8.2059,-7.73694 -8.2059,-15.46144 0,-5.57857 0.099,-5.77322 6.25,-12.30395 3.4375,-3.64965 14.062,-15.04855 23.61,-25.3309 13.9264,-14.99755 18.2265,-19.02609 21.7408,-20.36823 11.2106,-4.28138 21.1503,3.35229 20.0286,15.38209 -0.5261,5.64336 -0.1501,5.07958 -13.147,19.70955 -3.4203,3.85 -12.8748,14.5375 -21.0101,23.75 l -14.7915,16.75 -5.0904,-7.9e-4 c -3.1757,-4.9e-4 -6.7055,-0.80027 -9.3845,-2.12633 z m -35.4999,-22.31734 c -10.2718,-2.93705 -14.9646,-12.88339 -11.6719,-24.73848 1.3387,-4.82008 7.317,-10.13033 23.575,-20.94065 16.4688,-10.9505 18.3314,-11.87641 23.8909,-11.87641 9.3367,0 13.968,5.12209 13.7921,15.25377 -0.061,3.50329 -0.822,7.10973 -1.946,9.22053 -2.0844,3.9143 -16.5336,19.04093 -26.6749,27.92552 -5.8963,5.16572 -7.3214,5.93882 -11.4527,6.21316 -2.5952,0.17233 -6.8758,-0.30352 -9.5125,-1.05744 z m -25.476,-32.67072 c -6.2908,-3.11388 -15.23,-14.41096 -15.23,-19.24716 0,-3.6561 13.7529,-4.84489 20.5,-1.772 4.1557,1.89263 11.5,9.18676 11.5,11.42138 0,1.47698 -10.0784,11.71335 -11.5314,11.71217 -0.5327,-4.3e-4 -2.8901,-0.95191 -5.2386,-2.11439 z M 145.42858,506.496 l 0,-36.0091 2.75,-2.77592 c 1.5125,-1.52675 9.72421,-9.06015 18.24824,-16.74089 22.02654,-19.84744 37.86114,-34.16332 42.50174,-38.42535 2.2,-2.02052 18.625,-16.87487 36.5,-33.00966 17.875,-16.1348 36.55,-33.01547 41.5,-37.5126 4.95,-4.49713 11.0225,-9.94078 13.4945,-12.09699 5.6252,-4.90679 11.6455,-10.378 20.0522,-18.22351 3.6007,-3.36032 7.6507,-7.05756 9,-8.2161 1.3493,-1.15853 4.2533,-3.77483 6.4533,-5.814 10.5885,-9.81437 31.7626,-28.69978 32.4716,-28.96178 0.4391,-0.16225 3.4782,-2.97475 6.7534,-6.25 4.3149,-4.31485 6.6942,-5.955 8.6388,-5.955 2.0849,0 7.5323,4.39201 24.41,19.6809 11.9494,10.82449 30.7232,27.81199 41.7194,37.74999 10.9962,9.93801 22.6962,20.56121 26,23.6071 3.3038,3.0459 10.2819,9.3288 15.5069,13.96201 5.225,4.63321 12.2064,10.91611 15.5142,13.96201 5.1065,4.70212 18.0517,16.52223 27.5783,25.1815 3.6732,3.33877 7.2878,6.58378 35.4075,31.78746 13.75,12.32412 29.275,26.32731 34.5,31.11818 5.225,4.79088 11.4125,10.39209 13.75,12.44713 l 4.25,3.73644 0,36.38364 c 0,28.44271 -0.2729,36.38263 -1.25,36.37901 -0.6875,-0.003 -2.6,-1.25911 -4.25,-2.79236 -1.65,-1.53326 -16.95,-15.33529 -34,-30.67118 -17.05,-15.33589 -33.025,-29.77416 -35.5,-32.08505 -2.475,-2.31088 -9.675,-8.84327 -16,-14.51641 -6.325,-5.67314 -11.725,-10.57273 -12,-10.88797 -0.275,-0.31525 -5,-4.59488 -10.5,-9.5103 -5.5,-4.91541 -10.1455,-9.52099 -10.3234,-10.23461 -0.1778,-0.71362 -0.8528,-1.29912 -1.5,-1.30112 -0.6471,-0.002 -7.7016,-5.91972 -15.6766,-13.15049 -7.975,-7.23078 -18.5331,-16.79164 -23.4623,-21.24637 -4.9293,-4.45473 -10.3876,-9.44951 -12.1296,-11.09951 -1.7421,-1.65 -6.6873,-6.15 -10.9895,-10 -4.3022,-3.85 -9.8689,-8.86257 -12.3704,-11.13905 -34.9846,-31.83696 -38.1091,-34.43213 -39.9001,-33.13983 -0.9748,0.70339 -10.2273,8.92888 -20.5612,18.27888 -10.3339,9.35 -19.4184,17.1455 -20.1879,17.32332 -0.7695,0.17783 -1.3991,0.69627 -1.3991,1.15208 0,0.72562 -10.5976,10.50729 -51.5,47.53501 -11.7721,10.6569 -41.0562,36.98362 -47.5,42.70294 -2.475,2.19674 -7.2148,6.5349 -10.533,9.64036 -3.3181,3.10546 -8.7181,8.06965 -12,11.03153 -3.2818,2.96189 -7.767,7.01797 -9.967,9.01351 -4.5861,4.15989 -21.3832,19.10498 -23.1542,20.60125 -0.651,0.55 -3.5918,3.25 -6.5352,6 -21.43207,20.02392 -31.15872,28.5 -32.70494,28.5 -0.78705,0 -1.10564,-10.37593 -1.10564,-36.0091 z M 526.82186,371.71446 c -9.8955,-8.62985 -53.8766,-48.48083 -59.1432,-53.58929 l -6.25,-6.06229 0,-10.27889 0,-10.27889 35.3607,0 35.3607,0 0.6306,5.25 c 0.3468,2.8875 0.6345,21.5625 0.6393,41.5 0.01,33.87586 -0.1059,36.24734 -1.7413,36.20936 -0.9625,-0.0224 -3.1481,-1.25985 -4.8568,-2.75 z"
       style="fill:#363636" />
  </g>
</svg>
